<svg xmlns="http://www.w3.org/2000/svg" xmlns:xlink="http://www.w3.org/1999/xlink" version="1.1" width="2245" height="3179" viewBox="-480.5,-200.5,2245,3179"><g id="document" fill="#ffffff" fill-rule="nonzero" stroke="#000000" stroke-width="0" stroke-linecap="butt" stroke-linejoin="miter" stroke-miterlimit="10" stroke-dasharray="" stroke-dashoffset="0" font-family="none" font-weight="none" font-size="none" text-anchor="none"><rect x="-480.5" y="-200.5" width="2245" height="3179" id="Shape 1 1" vector-effect="non-scaling-stroke"/></g><g fill="#000000" fill-rule="evenodd" stroke="none" stroke-width="1" stroke-linecap="butt" stroke-linejoin="miter" stroke-miterlimit="10" stroke-dasharray="" stroke-dashoffset="0" font-family="none" font-weight="none" font-size="none" text-anchor="none" id="element-34"><g id="stage"><g id="layer1 1"><g id="Group 1"><path d="M591.20304,649.67357c-16.19934,4.77008 -231.19764,90.36899 -264.02662,105.11869c-5.05695,2.27364 -42.82387,17.52385 -83.92649,33.89104c-108.73516,43.30302 -118.7514,49.09547 -140.63638,81.32324c-24.62861,36.2654 -22.59911,-2.05086 -22.59911,426.83485v383.00997l9.81177,20.71611c12.16781,25.69066 37.9012,53.24602 61.26328,65.60305c16.98367,8.98166 122.0047,53.74957 223.43062,95.24588c27.69574,11.32855 83.31611,34.37934 123.60083,51.21957c40.28471,16.84023 82.65996,33.49735 94.16552,37.01616c24.75984,7.56559 51.80553,8.18207 76.5318,1.74262c9.82092,-2.56052 78.43312,-29.89309 152.47154,-60.74141c74.03537,-30.84832 162.07883,-67.36398 195.64943,-81.14318c33.57059,-13.78226 70.9072,-29.73134 82.9682,-35.44139c38.8015,-18.37227 68.75868,-51.78112 80.62741,-89.91731c5.5422,-17.80157 5.7833,-33.98565 5.7833,-387.02928c0,-397.61318 0.62258,-381.08118 -15.53708,-412.80845c-7.9013,-15.51267 -37.74861,-47.08734 -52.82486,-55.88283c-6.88197,-4.01626 -41.35287,-18.92771 -76.60199,-33.14028c-35.24912,-14.20952 -94.98952,-38.40171 -132.75644,-53.75873c-85.77897,-34.87985 -207.63108,-83.23066 -227.57201,-90.30185c-22.63574,-8.02948 -65.33143,-8.76803 -89.8227,-1.55645M804.8341,750.57152c79.73016,32.38342 154.57733,62.59695 166.32704,67.13509c54.26534,20.96636 114.15528,46.66007 126.54588,54.29281c7.4954,4.61443 18.10371,14.2614 23.57571,21.4333c18.91856,24.80562 19.25731,28.25118 19.25731,196.32694v151.93441l-6.66224,3.56459c-5.67343,3.03661 -7.48624,2.54831 -12.20749,-3.28381c-5.19123,-6.40893 -5.54525,-16.44349 -5.54525,-157.22941v-150.38101l-8.52388,-16.31836c-5.09357,-9.74768 -13.38856,-19.70594 -20.60014,-24.73237c-10.95012,-7.62968 -76.01298,-35.45055 -210.44796,-89.99361c-212.7979,-86.33747 -203.75215,-82.77288 -222.50895,-87.65893c-28.26644,-7.36417 -37.74556,-4.63579 -163.55289,47.07208c-29.37427,12.07015 -81.56129,33.39664 -115.97115,47.38947c-162.02085,65.88077 -191.47447,78.53078 -201.42357,86.52058c-5.87485,4.71819 -14.11491,14.63678 -18.31123,22.03757l-7.62968,13.46181l-1.52594,155.31588c-1.40996,143.62721 -1.92878,155.56614 -6.86671,158.6821c-3.89419,2.45371 -6.78736,2.45371 -10.68155,-0.0061c-4.97455,-3.14038 -5.34078,-14.15764 -5.34078,-160.20803c0,-171.98521 -0.74771,-164.29144 18.69882,-192.45412c14.63068,-21.1861 0.7416,-14.85957 283.43653,-129.10946c48.67736,-19.67542 101.55105,-41.34677 117.49708,-48.1616c52.27552,-22.3397 69.1066,-26.90225 94.60804,-25.64183c21.55537,1.0651 31.33662,4.5595 167.85297,60.01202M659.87017,765.51654c24.39056,11.3255 37.96224,32.73133 38.08126,60.05474c0.06409,14.74359 0.71109,15.97045 13.17493,24.91854c39.18909,28.14437 43.77606,94.51954 9.31126,134.78289c-12.49437,14.59405 -27.67133,25.02535 -44.4139,30.52177l-11.31634,3.71413l-0.89115,21.93381l-0.8942,21.93075h-10.68155h-10.68155l-0.74466,-61.03745c-0.93387,-76.65998 0.20448,-86.97836 9.6134,-86.97836c3.83315,0 9.51574,-2.81077 12.6256,-6.24718c8.60933,-9.51574 20.94805,-6.92165 22.26646,4.68157c0.83926,7.38248 -1.07121,10.88298 -10.06507,18.43331c-11.08135,9.30516 -11.09966,9.35704 -11.71614,35.90223c-0.33876,14.62152 -0.22889,26.58181 0.2472,26.58181c0.47609,-0.00305 7.60221,-3.41505 15.83311,-7.58695c24.95516,-12.64696 40.30303,-38.61839 40.55938,-68.63356c0.25025,-29.30103 -15.69883,-51.96118 -36.57364,-51.96118c-5.49947,0 -10.00099,-1.21159 -10.00099,-2.6887c0,-5.83823 -19.96535,-21.75985 -29.53602,-23.55435c-18.28071,-3.4303 -31.99583,1.29399 -45.94594,15.83311c-10.28176,10.71207 -15.02742,13.46181 -23.23696,13.46181c-31.25422,0 -42.95815,58.61731 -18.94602,94.90102c8.26142,12.48521 23.71915,25.27561 34.50142,28.55026c6.7721,2.05696 6.86671,1.70294 6.86671,-25.78222c0,-27.21965 -0.21363,-28.04976 -9.15562,-35.57262c-6.354,-5.34688 -9.15562,-10.45266 -9.15562,-16.68459c0,-10.24514 7.31229,-14.76496 14.91145,-9.2136c2.71006,1.98067 9.38756,5.64902 14.84431,8.15765l9.91858,4.55645v73.39753v73.39753l-9.91858,-0.95829l-9.91858,-0.95524l-0.88809,-21.75985l-0.89115,-21.75985l-13.37636,-5.10883c-32.32238,-12.34482 -52.95914,-36.86051 -61.08017,-72.56742c-4.04068,-17.77105 -4.27872,-24.54316 -1.36114,-38.67638c5.38961,-26.09351 16.10168,-44.81369 30.27762,-52.91031c9.88807,-5.64596 12.19528,-8.67342 12.27463,-16.10778c0.16785,-15.87279 6.07323,-36.19826 14.0264,-48.29893c15.27462,-23.2278 54.99779,-33.23489 82.05569,-20.66728M617.14396,785.66195c-14.00199,4.95319 -25.8341,17.09964 -26.17591,26.86563c-0.12818,3.68361 -0.70498,9.17698 -1.27873,12.21054c-0.5768,3.03051 -0.12818,5.02033 0.99491,4.41606c28.39462,-15.23495 57.8635,-17.56963 73.73629,-5.84739c11.42316,8.43537 13.55031,7.32144 10.70597,-5.6185c-2.96642,-13.51369 -18.30818,-29.79848 -31.52889,-33.46988c-13.46791,-3.7416 -11.4964,-3.84841 -26.45363,1.44354M468.16986,829.62417c0.83621,3.20141 4.2421,6.53101 7.56864,7.40079c8.92062,2.33163 6.64393,18.45467 -2.79551,19.7975c-4.9715,0.70498 -6.86671,3.02135 -6.86671,8.39265c0,9.4486 -8.37434,9.92164 -9.70495,0.54934c-0.62869,-4.41301 -3.4303,-7.21463 -7.84331,-7.84331c-10.84941,-1.53814 -8.42012,-21.91244 2.61545,-21.91244c3.7416,0 5.77719,-2.14852 5.77719,-6.10374c0,-7.84636 9.21055,-8.07831 11.2492,-0.28077M810.93784,831.07381c0,2.32247 2.74669,4.94098 6.10374,5.81992c4.44353,1.16276 6.10374,4.16275 6.10374,11.03557c0,8.00506 -1.1475,9.44249 -7.53507,9.44249c-4.73651,0 -7.0132,1.41607 -6.13426,3.81484c2.16988,5.92063 -3.47608,12.54625 -8.91147,10.45877c-2.6887,-1.03153 -4.88605,-4.50456 -4.88605,-7.71818c0,-3.27771 -2.67954,-6.54321 -6.10374,-7.44046c-8.53914,-2.23092 -7.59916,-10.81278 2.2889,-20.90227c8.92978,-9.10984 19.0742,-11.50861 19.0742,-4.51067M404.0897,867.77562c8.09051,6.95827 8.53303,8.66427 8.33772,32.04466l-0.20448,24.6927l20.05996,0.04578c11.03252,0.02747 21.6042,1.05595 23.49026,2.2889c6.52185,4.26041 7.91045,23.12404 5.707,77.47178l-2.21261,54.55527l-104.17566,-0.80264l-104.17261,-0.80264l-0.83011,-59.18191c-1.03458,-73.6722 -1.07426,-73.57454 29.65199,-73.57454h21.05181v-25.12912c0,-23.36208 0.5646,-25.61436 8.04168,-32.04466c7.45572,-6.41198 10.89824,-6.91554 47.37421,-6.91554c37.1596,0 39.80557,0.4059 47.88082,7.35196M-20.69735,872.66777c-23.9694,5.11799 -38.74352,22.73645 -40.53497,48.32945c-1.00101,14.31023 0.00916,19.01927 5.92979,27.64996c10.9959,16.02233 21.78426,22.48925 40.04972,24.00603c42.0609,3.48829 69.48808,-35.8595 50.4505,-72.37515c-3.88503,-7.45572 -10.49844,-15.99486 -14.69476,-18.97349c-9.84839,-6.99489 -29.54823,-11.12407 -41.20028,-8.6368M1251.78079,876.92514c-21.33259,9.2899 -34.89816,37.29998 -28.88292,59.63358c3.5005,13.00708 17.93891,29.51466 29.73439,33.99786c10.63272,4.04373 30.03347,3.41505 41.41085,-1.33672c13.47402,-5.6307 28.87071,-23.93583 31.37935,-37.30609c2.41098,-12.84533 -2.25228,-30.77813 -10.84025,-41.69773c-12.69884,-16.14135 -42.01513,-22.34581 -62.80143,-13.2909M954.65356,890.51817c3.95828,4.89215 5.82602,11.99081 5.82602,22.12607v14.9206h27.25017c20.70085,0 28.40072,1.15361 32.04466,4.79449c4.001,4.00406 4.79449,13.84024 4.79449,59.51151c0,50.64887 -0.45473,55.17175 -6.10374,60.82076c-5.85959,5.85959 -10.17189,6.10374 -108.34147,6.10374c-98.16958,0 -102.48187,-0.24415 -108.34147,-6.10374c-5.65817,-5.65817 -6.10374,-10.17189 -6.10374,-61.95301c0,-39.36915 1.08036,-56.92962 3.66225,-59.51151c2.32247,-2.32247 14.03861,-3.66225 32.04466,-3.66225h28.38241l0.04578,-16.02233c0.07935,-27.34478 5.09968,-30.10062 52.87674,-29.03551c33.80864,0.75381 36.50955,1.26958 41.96324,8.01116M322.63828,904.67581v20.03859l34.33356,-0.86368l34.33356,-0.86368v-18.31123v-18.31123l-34.33356,-0.86368l-34.33356,-0.86368v20.03859M884.18278,916.8833v10.68155h27.46685h27.46685v-10.68155v-10.68155h-27.46685h-27.46685v10.68155M274.48584,990.84237l0.84842,42.01207h80.87461h80.87461v-41.20028v-41.20028l-81.72304,-0.8118l-81.72609,-0.81485l0.85147,42.01513M818.42409,955.26364c-1.1475,1.85554 -1.10173,20.41703 0.10071,41.24605l2.18209,37.87068h10.04982c5.52389,0 10.63883,-1.71515 11.36517,-3.81484c0.72635,-2.09664 1.00712,-14.46587 0.62869,-27.48516c-0.64089,-21.97043 -0.21973,-23.78324 5.87485,-25.27866c3.61036,-0.88504 34.03143,-1.22075 67.60202,-0.74466c46.08022,0.6531 61.13205,1.79755 61.41893,4.67852c0.21058,2.09969 0.55239,14.88398 0.76297,28.41293l0.38148,24.60114l11.44452,-0.94913l11.44452,-0.94608v-39.67434v-39.67434l-90.58567,-0.80875c-63.659,-0.56765 -91.2052,0.19532 -92.6701,2.56662M-50.64842,992.00819c-7.63273,4.43742 -11.03557,15.0854 -7.38553,23.09657c1.66937,3.6653 17.21561,19.11388 34.54414,34.33356c27.02128,23.72831 33.04872,27.66827 42.32947,27.66827c20.80767,0 30.01822,-20.80767 16.69985,-37.7364c-4.30314,-5.47201 -9.22886,-8.04168 -15.41806,-8.04168c-7.07424,0 -14.1027,-4.74261 -31.66317,-21.36311c-22.47704,-21.2746 -28.58078,-24.07927 -39.10669,-17.95722M1278.34124,1008.17395c-14.89619,14.35906 -23.36513,20.14236 -31.80356,21.71407c-29.36817,5.46896 -32.42004,45.59192 -3.62562,47.6794c4.96234,0.36012 12.45469,-1.16887 16.65102,-3.39673c10.85246,-5.76193 67.14119,-61.46471 67.14119,-66.44231c0,-6.45776 -14.2553,-19.12608 -21.5218,-19.12608c-3.89419,0 -14.75275,7.91656 -26.84122,19.57166M-51.9119,1074.69867c-7.7487,3.73854 -11.23394,11.97555 -8.59102,20.30105c2.62766,8.28583 65.09033,64.22665 74.29173,66.53692c16.32446,4.09561 31.36104,-12.94604 26.94498,-30.53703c-2.2065,-8.79855 -15.62559,-17.27055 -27.35393,-17.27055c-4.87384,0 -11.43537,-4.45879 -19.08641,-12.97046c-14.05692,-15.63779 -31.35494,-29.83205 -36.01209,-29.54823c-1.86469,0.11292 -6.45471,1.68158 -10.19325,3.48829M1276.97095,1093.89189c-15.62253,16.93484 -19.81886,19.83717 -28.67539,19.83717c-14.20647,0 -25.35495,11.34686 -25.35495,25.80358c0,18.96128 17.12406,28.65098 34.53499,19.53809c10.59305,-5.54525 63.49115,-55.0161 66.95503,-62.61526c5.04169,-11.06609 -4.11087,-22.40074 -18.0915,-22.40074c-9.70801,0 -13.31227,2.43234 -29.36817,19.83717M830.41795,1110.53985c11.95724,4.54729 16.57472,14.45672 30.89715,66.29582c7.3367,26.55739 23.7222,85.10146 36.41494,130.09521c12.69274,44.9968 23.07521,84.54297 23.07521,87.88171c0,10.5961 -13.50148,21.05181 -27.18303,21.05181c-14.32854,0 -26.5757,-4.92572 -29.47803,-11.85652c-1.1353,-2.71006 -4.38859,-13.8555 -7.22989,-24.76594l-5.16377,-19.83717h-36.32338h-36.32033l-6.74769,24.28985c-3.71108,13.3611 -9.17088,26.06299 -12.13424,28.22982c-2.96337,2.16683 -12.0549,3.93997 -20.20339,3.93997c-11.65815,0 -16.40992,-1.59613 -22.30308,-7.49235c-9.58593,-9.58288 -9.57372,-19.84938 0.05493,-51.57359c4.1536,-13.67239 14.34075,-48.89405 22.64184,-78.26832c33.20742,-117.5215 40.38543,-142.27218 43.69671,-150.66483c6.39978,-16.23291 27.9582,-24.29901 46.30606,-17.32548M1021.75202,1116.54594l8.92062,8.92062v114.90604v114.90604l50.59699,-0.98881c59.23684,-1.15666 59.27041,-1.1414 59.27041,28.72727c0,14.99995 -1.22685,19.09251 -7.65104,25.5167l-7.65104,7.64799l-69.85736,-0.92167c-63.66511,-0.83926 -70.42806,-1.43743 -76.27544,-6.73548c-6.34484,-5.74668 -6.41809,-7.42215 -6.41809,-145.14399c0,-106.87962 0.88809,-140.44411 3.81484,-144.11246c11.44452,-14.34685 32.36816,-15.60422 45.25011,-2.72227M309.36264,1114.93455c37.26336,9.92164 72.74443,38.8839 89.53888,73.08624c21.88498,44.56344 24.18914,104.2428 5.91758,153.07276c-9.51269,25.41904 -39.70486,55.70277 -65.39552,65.59084c-16.25732,6.25939 -23.85954,7.0834 -67.75462,7.35196c-46.05886,0.28077 -49.76078,-0.11597 -54.07307,-5.80161c-3.97964,-5.24617 -4.64495,-25.73644 -4.72735,-145.7269c-0.11597,-167.74005 -4.9776,-151.84896 46.44339,-151.79402c19.28783,0.02136 41.22164,1.8708 50.05071,4.22074M653.90376,1118.16953c6.13121,6.12816 7.49235,10.52896 7.49235,24.19219c0,14.40789 -1.10478,17.56963 -8.04168,23.02638c-7.50455,5.90537 -11.97249,6.32653 -67.14119,6.32653h-59.09951v31.79441v31.79746l38.42002,1.01017c37.76997,0.99491 38.54515,1.15666 45.77808,9.57678c9.24717,10.7609 9.68054,26.90836 1.04679,39.03345l-6.31127,8.86264h-39.46681h-39.46681v28.65403v28.65098l10.74564,2.01729c5.91148,1.10783 33.63774,1.77314 61.6112,1.47711c49.303,-0.51882 51.03646,-0.32655 56.39555,6.29296c3.824,4.72125 5.52999,11.94808 5.52999,23.41396c0,13.54116 -1.37639,17.96332 -7.49235,24.07622l-7.48929,7.49235h-77.81664c-82.50431,0 -90.11874,-1.12614 -96.08209,-14.21257c-2.31942,-5.09052 -3.38758,-49.80656 -3.38758,-141.71674v-134.27628l7.49235,-7.48929l7.48929,-7.49235h81.15234h81.15234l7.48929,7.49235M-55.79388,1162.55902c-8.07831,8.07831 -7.71513,17.06607 1.01627,25.31528c3.9186,3.70192 18.32039,17.39872 32.00193,30.43937c26.4933,25.24814 36.15858,30.83612 48.14023,27.82697c25.3458,-6.3601 18.71713,-46.95916 -7.66935,-46.95916c-7.3306,0 -13.47402,-4.3245 -30.34477,-21.36311c-22.98975,-23.21864 -31.99888,-26.4048 -43.14432,-15.25936M1296.18553,1160.88659c-4.19632,2.30111 -14.23088,11.85958 -22.30308,21.24103c-13.00708,15.11898 -15.98266,17.05386 -26.23084,17.05386c-26.22779,0 -34.93173,32.66114 -12.11593,45.46679c6.83619,3.8362 9.34788,3.86367 18.18916,0.20142c9.2838,-3.84536 64.76073,-53.36809 70.96519,-63.34771c4.1597,-6.6897 -0.29298,-17.62456 -8.73751,-21.47297c-9.61645,-4.37944 -10.27565,-4.35197 -19.76698,0.85758M270.75645,1263.04496v91.33033l20.60014,-0.77518c43.83709,-1.64496 60.90927,-21.6805 63.96724,-75.06995c3.05492,-53.304 -9.74463,-85.41885 -39.58278,-99.31097c-9.82703,-4.57476 -21.57979,-7.45572 -30.4882,-7.47404l-14.49639,-0.03052v91.33033M810.58688,1247.24847c-5.45064,14.06913 -14.3499,50.97542 -12.8789,53.40776c1.67548,2.7772 37.64484,3.09765 37.64484,0.33876c0,-4.26041 -18.6683,-62.13917 -20.0447,-62.13917c-0.80875,0 -2.93285,3.77822 -4.72125,8.39265M-57.14586,1248.69201c-7.78227,11.10576 -5.69785,16.58082 14.32244,37.62958c20.52079,21.57368 29.54212,25.56553 58.12291,25.70592c11.52997,0.05799 16.2268,-1.51678 22.12607,-7.4191c9.08848,-9.08542 9.44249,-14.97249 1.3886,-23.02638c-4.69683,-4.69683 -10.17189,-6.10374 -23.75577,-6.10374c-17.35295,0 -17.9328,-0.28382 -34.2298,-16.7853c-18.62863,-18.86057 -29.72218,-21.78426 -37.97445,-10.00099M1300.66568,1244.83749c-3.40894,1.36419 -11.49945,8.35297 -17.98163,15.52487c-11.18206,12.37839 -12.86059,13.14136 -33.06704,14.99385c-15.82701,1.44964 -22.36717,3.4303 -25.50755,7.72429c-10.79447,14.76191 0.35707,29.09045 22.48314,28.88597c30.75982,-0.28077 39.73538,-3.92471 60.60103,-24.60419c11.57575,-11.47199 19.51062,-21.9277 19.51062,-25.70897c0,-13.00403 -13.6144,-21.79647 -26.03857,-16.81582M141.96744,1300.50364c2.76194,2.76194 3.66225,46.1321 3.66225,176.46536c0,194.16927 -0.30824,191.17538 21.87582,213.35944c14.41094,14.41094 24.14641,19.24205 104.77688,52.01611c33.57059,13.64797 83.6976,34.28778 111.39334,45.87269c126.3353,52.84012 219.19462,90.99462 230.03487,94.51648c21.98569,7.14748 25.38853,6.04576 178.91601,-57.78415c110.24278,-45.83607 145.0738,-60.11883 211.72059,-86.81051c79.65692,-31.90122 94.27539,-40.82184 105.28349,-64.24191c6.18615,-13.15967 6.49438,-18.29292 6.49438,-107.9844c0,-87.84509 0.38148,-94.51343 5.66122,-99.29266c6.89113,-6.23803 15.14339,-3.68666 17.42009,5.38655c0.91556,3.65004 1.24822,49.16261 0.73855,101.13599c-0.87589,89.01396 -1.30925,95.31913 -7.45267,108.60698c-13.1139,28.36105 -36.183,47.01104 -73.49824,59.423c-8.02337,2.67039 -22.14133,8.08441 -31.37325,12.03658c-16.72426,7.15664 -114.87858,47.64278 -210.57919,86.85934c-27.69574,11.34686 -73.26935,30.28068 -101.27333,42.06701c-28.00398,11.78938 -57.87571,22.92872 -66.37822,24.75068c-21.62557,4.63885 -37.59907,0.57986 -97.74536,-24.82698c-27.75983,-11.72835 -67.03132,-27.89106 -87.26829,-35.92054c-20.23696,-8.02642 -56.44743,-23.0691 -80.46566,-33.43021c-24.01823,-10.35805 -53.4688,-22.71203 -65.4413,-27.45159c-11.97555,-4.74261 -35.50548,-14.34075 -52.29078,-21.33564c-16.7853,-6.99184 -39.18909,-16.08642 -49.78519,-20.2095c-47.84115,-18.60727 -73.96212,-38.62755 -86.45649,-66.2592l-7.19631,-15.91246l-0.85758,-178.10726c-0.63174,-131.16337 0.07019,-179.2273 2.66123,-182.34937c4.32755,-5.2126 12.51878,-5.48421 17.42314,-0.57986M-61.89762,1363.98258c-7.60221,7.60221 -7.79448,15.83617 -0.52187,22.416c4.67242,4.22989 13.05591,5.05085 51.50645,5.05085c49.70584,0 53.54205,-1.20244 53.54205,-16.7853c0,-15.55844 -3.87893,-16.7853 -53.01712,-16.7853c-41.33761,0 -45.95204,0.54629 -51.5095,6.10374M1225.99247,1363.98258c-7.60221,7.60221 -7.79448,15.83617 -0.52187,22.416c4.66936,4.22684 13.0376,5.05085 51.27145,5.05085c49.24501,0 53.01407,-1.11393 53.01407,-15.65305c0,-16.15356 -5.28279,-17.91754 -53.62445,-17.91754c-39.96732,0 -44.60006,0.5646 -50.13921,6.10374M-23.6424,1440.00167c-35.45055,1.75177 -36.64688,2.03865 -41.01716,9.84534c-4.03763,7.20852 -3.96438,8.86569 0.72635,16.02233l5.22786,7.98065h45.12498c49.57461,0 56.20938,-1.9532 56.20938,-16.53199c0,-17.89008 -8.68563,-20.16067 -66.27141,-17.31632M1262.72786,1439.36078c-34.33356,1.23296 -42.83913,4.74871 -42.83913,17.70391c0,14.49029 7.62358,16.7853 55.71803,16.7853c47.9968,0 54.14937,-1.86469 54.14937,-16.41907c0,-17.91144 -8.39875,-20.17593 -67.02827,-18.07014M467.28482,1462.11554c5.82908,8.32246 7.25125,5.76804 -41.0782,73.83395c-21.63472,30.46684 -39.36915,56.42607 -39.40883,57.68649c-0.03967,1.26042 17.01724,2.2889 37.90425,2.2889c35.7832,0 38.24912,0.39064 42.72621,6.78431c6.13732,8.75887 6.0305,17.26139 -0.29908,24.25628c-4.56865,5.0478 -10.80973,5.58187 -65.39857,5.58187c-50.78926,0 -61.10459,-0.75992 -65.14221,-4.79449c-8.82907,-8.83212 -8.93588,-8.63069 41.38644,-79.51348c21.60115,-30.42411 39.27149,-56.17581 39.27149,-57.2226c0,-1.04984 -17.13626,-1.90742 -38.07821,-1.90742c-36.66825,0 -38.25217,-0.26551 -42.80861,-7.21768c-5.66427,-8.64595 -1.97761,-21.96432 6.70496,-24.21661c3.03356,-0.78433 31.18708,-1.58697 62.56338,-1.78229c55.15649,-0.34181 57.20429,-0.13428 61.65698,6.22277M598.00261,1464.77677c22.39769,14.8382 24.25933,21.65303 23.14845,84.70777c-0.9003,50.92964 -1.36724,54.64988 -8.06305,64.03438c-10.53506,14.77106 -23.22475,20.34988 -46.29995,20.34988c-23.42007,0 -35.56347,-5.49642 -47.90829,-21.6805l-8.55135,-11.20953v-57.23786c0,-65.35279 1.03153,-68.57557 26.00195,-81.33545c20.37125,-10.40994 43.73028,-9.50963 61.67223,2.3713M697.18236,1462.40546c3.48219,3.77822 15.18917,21.39973 26.01416,39.16162c10.82499,17.7619 23.32241,37.65095 27.77204,44.19721l8.08746,11.9023v-45.48205c0,-38.04159 0.82706,-46.39761 5.05085,-51.06393c6.18309,-6.83314 12.80871,-7.08645 21.73543,-0.83011c6.71107,4.69683 6.78431,5.60019 6.78431,82.92242c0,86.16046 -0.66836,89.3344 -18.80564,89.3344c-10.53811,0 -15.52182,-5.42623 -36.42715,-39.67434c-8.71004,-14.2675 -19.40686,-31.77915 -23.76798,-38.91137c-4.36418,-7.13223 -8.9725,-12.97046 -10.24514,-12.97046c-1.26958,0 -2.31027,18.27766 -2.31027,40.61737c0,28.94701 -1.16276,42.20739 -4.05289,46.15957c-5.7009,7.79448 -20.25222,7.10476 -27.04569,-1.28179c-4.99591,-6.17089 -5.52389,-13.99589 -5.52389,-82.10147c0,-63.19512 0.76297,-76.37005 4.75177,-82.06179c6.25023,-8.92673 19.71204,-8.88705 27.98262,0.0824M945.22022,1461.6425c8.09967,8.09967 7.78838,19.83717 -0.68057,25.76696c-5.11799,3.58595 -14.84125,4.75177 -39.67434,4.75177h-32.89003v16.7853v16.7853h18.09455c18.89719,0 25.46482,3.46082 29.26135,15.42721c1.16276,3.65919 -0.04273,9.32347 -2.92064,13.71511c-4.36723,6.66529 -7.05593,7.48014 -24.66828,7.48014h-19.76698v16.7853v16.7853h36.68656c35.87476,0 36.76285,0.1648 40.06193,7.40384c4.77313,10.47403 0.85758,22.76697 -8.36518,26.27357c-4.25736,1.62054 -25.93481,2.94506 -48.17075,2.94506c-57.89707,0 -53.79535,6.70496 -53.73737,-87.86035c0.02747,-41.478 1.05595,-76.90413 2.2889,-78.7261c5.62155,-8.3072 16.18408,-10.23903 56.41386,-10.33059c37.96529,-0.0824 42.54615,0.49135 48.06699,6.01219M290.86524,1472.31795c4.13834,16.49537 2.51474,17.02029 -49.7974,16.10778c-47.75875,-0.83621 -48.14328,-0.89725 -49.1382,-7.93182c-2.18514,-15.43027 -1.02238,-15.79954 49.68143,-15.79954h47.34064l1.91352,7.62358M1069.18422,1470.07177c1.94709,3.11901 2.35605,8.09662 0.96744,11.84432c-2.16988,5.8718 -5.27974,6.59815 -33.9063,7.92571c-33.6591,1.56256 -45.24706,-1.61444 -45.24706,-12.39976c0,-10.78837 6.31127,-12.74767 41.07515,-12.74767c28.93175,0 34.23285,0.76907 37.11077,5.3774M550.41477,1495.43588c-7.9898,6.28075 -8.04168,6.6012 -8.04168,48.14939c0,45.50342 2.21261,52.98661 16.73952,56.63359c9.10373,2.28585 24.36615,-4.71819 28.94701,-13.28175c1.73041,-3.22888 3.14343,-23.19118 3.14343,-44.35896c0,-36.79337 -0.3296,-38.81676 -7.49235,-45.97646c-9.26548,-9.26854 -22.41295,-9.72937 -33.29593,-1.16582M1262.61494,1521.72776c-37.44342,1.15361 -42.72621,3.36011 -42.72621,17.84735c0,14.37127 7.69987,16.67543 55.71803,16.67543c47.9968,0 54.14937,-1.86469 54.14937,-16.41907c0,-17.8565 -7.70598,-19.93483 -67.14119,-18.10371M-62.95052,1528.26182c-6.62561,7.32144 -6.40893,16.65712 0.53103,22.93787c4.67242,4.22989 13.05591,5.05085 51.50645,5.05085c49.70584,0 53.54205,-1.20244 53.54205,-16.7853c0,-15.60727 -3.79348,-16.7853 -54.07002,-16.7853c-41.13313,0 -47.03851,0.64089 -51.5095,5.58187M290.24876,1553.96163c2.45371,3.89114 2.45065,6.79042 -0.00305,10.68155c-2.96947,4.70904 -8.92367,5.34078 -50.34063,5.34078c-46.82488,0 -46.97442,-0.02136 -47.97543,-7.0895c-2.22176,-15.67136 -1.08952,-16.02233 48.67736,-15.11592c40.19011,0.73245 46.72111,1.54425 49.64175,6.18309M1071.53111,1553.96163c2.4476,3.88809 2.4476,6.79347 0,10.68155c-2.82603,4.49236 -8.93893,5.47811 -38.44443,6.1953c-38.75573,0.94608 -44.54208,-1.34588 -40.82184,-16.16882l1.94709,-7.76091l36.97954,0.85452c31.31221,0.72635 37.49225,1.67548 40.33965,6.19835M1264.2599,1604.17103c-35.95716,1.21465 -44.37117,4.56865 -44.37117,17.69476c0,14.49029 7.62358,16.7853 55.71803,16.7853c49.04359,0 54.14937,-1.7121 54.14937,-18.15559c0,-16.37024 -7.6602,-18.28071 -65.49623,-16.32446M-62.95052,1610.66237c-6.30517,6.96437 -6.38146,12.52183 -0.29908,21.20441c4.55645,6.50659 6.65613,6.78431 51.27145,6.78431c50.774,0 53.84418,-0.95524 53.84418,-16.7853c0,-15.81785 -3.09155,-16.7853 -53.5451,-16.7853c-40.90119,0 -46.80046,0.64089 -51.27145,5.58187M239.38016,1654.20953c23.13319,10.23598 48.73535,21.14947 56.89605,24.25323c19.61743,7.45572 25.84936,13.3733 24.04265,22.828c-0.79349,4.1536 -3.48829,7.55338 -5.98472,7.55338c-4.9715,0 -64.80346,-24.48822 -102.32623,-41.88084c-18.72934,-8.68258 -23.65201,-12.32346 -23.65201,-17.50249c0,-5.40181 4.9715,-13.8616 8.14545,-13.8616c0.45168,0 19.74867,8.37434 42.87881,18.61032M1074.00618,1643.34181c4.93488,10.83109 1.61139,13.40993 -43.34574,33.64384c-76.38226,34.37629 -79.47686,35.5421 -84.15538,31.65707c-5.65207,-4.68768 -5.53304,-13.31837 0.2472,-18.11286c5.94505,-4.93488 114.7565,-54.72923 119.84397,-54.84214c2.13631,-0.04883 5.46896,3.39673 7.40995,7.6541M441.6613,1676.31424c5.87485,2.10274 29.85952,14.52996 53.30095,27.61334l42.6194,23.7924l50.80147,-13.01013l50.80147,-13.00708l34.75777,9.8606c19.11693,5.42318 37.90731,11.14849 41.75572,12.7202c8.08746,3.30518 16.38855,-0.40285 61.79736,-27.61334c16.01317,-9.59814 33.97649,-19.05589 39.91239,-21.01519c12.2258,-4.03458 84.53991,-2.14852 89.01091,2.32247c1.48321,1.48321 2.23702,5.94505 1.67548,9.91553c-0.79654,5.6307 -7.40079,10.60831 -30.01516,22.62658c-15.94603,8.472 -60.57966,32.64893 -99.18585,53.71906c-69.6834,38.03548 -142.36374,75.83597 -145.8093,75.83597c-3.79043,0 -88.53176,-42.98867 -140.30983,-71.18187c-29.79543,-16.2207 -73.37311,-39.11279 -96.83591,-50.86555c-35.01718,-17.54216 -43.01309,-22.77917 -44.63363,-29.23388c-3.43641,-13.6968 2.37436,-15.58896 49.15651,-16.02233c17.48418,-0.16175 35.08127,1.35198 41.20028,3.54322M1267.32093,1686.71502c-39.40272,1.04679 -47.4322,4.06204 -47.4322,17.80767c0,14.80463 5.89622,16.52894 56.50541,16.52894c45.01817,0 47.1026,-0.27467 51.66209,-6.78431c2.6124,-3.72939 4.75177,-8.59712 4.75177,-10.81889c0,-6.92165 -14.53607,-19.06199 -21.98874,-18.36312c-3.85146,0.36012 -23.42617,1.09257 -43.49834,1.6297M-62.95052,1693.06292c-6.62561,7.32144 -6.40893,16.65712 0.53103,22.93787c4.67242,4.22989 13.05591,5.05085 51.50645,5.05085c49.70584,0 53.54205,-1.20244 53.54205,-16.7853c0,-15.60727 -3.79348,-16.7853 -54.07002,-16.7853c-41.13313,0 -47.03851,0.64089 -51.5095,5.58187M601.04838,1745.23162c-30.33866,9.19224 -41.1667,16.19323 -39.73538,25.69676c1.82502,12.11593 9.01218,12.65917 46.0497,3.48829l35.19114,-8.7131l25.07723,6.71107c19.02842,5.09357 26.08435,5.87485 29.2583,3.24109c5.51473,-4.57781 5.31331,-13.36415 -0.44557,-19.11998c-4.9654,-4.9654 -52.05884,-20.33768 -61.43114,-20.0508c-3.11291,0.09461 -18.39669,4.03152 -33.96429,8.74667M-63.2496,1776.66591c-6.23803,8.90231 -6.00303,12.16476 1.57477,21.79647c6.30517,8.01727 6.46081,8.04168 49.88285,8.04168c38.32236,0 44.16364,-0.67141 48.60717,-5.58187c6.67139,-7.37027 6.41809,-19.69984 -0.53103,-25.98974c-4.65716,-4.21464 -12.9613,-5.05085 -50.18194,-5.05085c-42.6316,0 -44.81064,0.29908 -49.35183,6.78431M1224.64049,1776.66591c-6.23803,8.90231 -6.00303,12.16476 1.57477,21.79647c6.28075,7.9898 6.6012,8.04168 48.14939,8.04168c32.91749,0 43.26944,-1.01322 48.60717,-4.75177c7.30618,-5.11494 8.85043,-16.20239 3.62562,-25.96838c-2.91454,-5.44454 -6.81483,-5.90232 -50.18194,-5.90232c-45.13414,0 -47.21552,0.27162 -51.77501,6.78431M75.43663,1797.34844c0,8.06305 1.0529,9.15562 8.82907,9.15562c9.60729,0 12.53404,4.33366 12.53404,18.56149v8.90536h19.58692c24.34784,0 29.24304,-1.81586 29.24304,-10.84941c0,-6.46387 -1.51983,-7.22989 -16.02233,-8.0661l-16.02233,-0.92167l-0.93692,-12.97046l-0.93998,-12.97046h-18.13422c-18.11897,0 -18.13728,0.00916 -18.13728,9.15562M1151.85944,1790.0972c-1.19023,1.19023 -2.16378,7.42826 -2.16378,13.86466v11.69783h-15.25936c-14.01725,0 -15.25936,0.58901 -15.25936,7.22989c0,5.98472 1.97151,7.55644 11.44452,9.12205c6.29601,1.04069 17.28275,1.90742 24.41498,1.92573l12.97046,0.03357v-13.55031c0,-13.45265 0.07935,-13.55336 11.44452,-14.49639c9.92164,-0.82095 11.44452,-1.96235 11.44452,-8.57576c0,-7.19937 -1.04374,-7.68156 -18.43636,-8.52083c-10.14137,-0.49135 -19.40991,0.07935 -20.60014,1.26958M-3.10636,1852.2089c-24.40582,5.77414 -43.34879,33.0945 -39.47902,56.93268c4.47099,27.55841 32.49939,49.62344 57.93064,45.60413c26.6581,-4.21158 47.64583,-27.47295 47.81673,-52.99271c0.20753,-31.18708 -34.42817,-57.07917 -66.26835,-49.54409M1241.01379,1859.2221c-15.29904,10.30922 -24.17693,25.22372 -24.17693,40.61737c0,25.79442 10.50454,40.91645 33.79643,48.65295c26.26746,8.72225 52.36708,-4.06204 62.5115,-30.62554c8.26447,-21.63777 -0.87284,-47.37726 -21.21662,-59.78313c-13.63882,-8.31635 -37.68452,-7.77922 -50.91438,1.13835M30.42151,1886.00838c10.66324,11.55439 10.63577,21.64998 -0.0824,33.64994c-16.98367,19.00401 -46.45865,9.26854 -46.45865,-15.34787c0,-28.27865 27.39361,-39.04871 46.54105,-18.30208M183.01818,1879.06538c-14.78937,11.38348 -14.71918,44.29182 0.11597,53.89912c14.24614,9.22886 32.72217,7.31839 44.6611,-4.62053c7.70293,-7.70293 9.39061,-11.85652 9.39061,-23.12404c0,-11.10881 -1.70294,-15.43637 -8.92062,-22.65405c-7.42521,-7.42521 -11.38959,-8.90842 -23.65201,-8.85348c-9.20445,0.04273 -17.30717,2.05086 -21.59505,5.35298M1057.9045,1882.56587c-17.39872,17.39872 -8.21564,51.48814 15.25936,56.64275c12.35703,2.71311 29.36511,-5.19734 35.1301,-16.34278c12.83312,-24.81783 -0.68362,-49.2206 -27.26543,-49.2206c-11.62763,0 -15.82091,1.61749 -23.12404,8.92062M281.00159,1885.76118c-24.64082,10.1902 -19.12914,48.92151 6.96132,48.92151c14.71613,0 21.39973,-4.30009 25.36716,-16.32141c7.13833,-21.63472 -12.05184,-40.98664 -32.32848,-32.6001M980.71045,1889.38681c-4.99897,4.34281 -8.92978,11.54828 -10.01624,18.36922c-1.48626,9.33873 -0.46999,12.53404 6.07017,19.0742c9.80261,9.80261 25.46482,10.53201 35.02023,1.6297c8.67342,-8.07831 9.34178,-30.09756 1.13835,-37.51972c-9.87281,-8.93588 -22.98365,-9.57067 -32.21251,-1.5534M103.43451,1892.91477c-9.09763,9.68664 -8.72225,24.6988 0.85758,34.27558c9.15256,9.15562 19.57776,9.55846 30.24405,1.16582c10.26039,-8.06915 11.27056,-27.06706 1.93794,-36.39968c-8.49946,-8.49946 -24.58893,-8.03253 -33.03957,0.95829M1146.64379,1891.95648c-11.92366,11.92366 -5.57882,36.84525 10.39773,40.85541c25.05892,6.28991 42.86049,-31.73947 20.46891,-43.72112c-9.63781,-5.15766 -24.19524,-3.80568 -30.86664,2.86571M916.99041,1904.40812c-8.237,4.79754 -6.90334,19.95619 2.2889,25.97754c7.06814,4.62969 8.19123,4.62969 15.25936,0c18.72934,-12.27158 1.84028,-37.26946 -17.54827,-25.97754M347.81623,1906.18431c-2.09664,0.84842 -3.81484,6.26244 -3.81484,12.03353c0,8.2248 1.64496,11.2431 7.61747,13.96232c6.29296,2.86876 8.67952,2.50864 13.73343,-2.06307c14.77106,-13.3672 1.42522,-31.58383 -17.53606,-23.93278M868.85017,1925.60032c-7.09865,7.09865 -7.35806,9.15256 -2.06612,16.39161c2.63987,3.60731 6.97963,5.07832 12.97046,4.39775c7.99896,-0.90946 9.00608,-2.18209 9.00608,-11.35602c0,-13.57473 -10.69986,-18.64389 -19.91041,-9.43334M392.40408,1929.82411c-4.3123,9.46386 0.63479,17.06607 11.10882,17.06607c8.78329,0 14.48113,-6.8423 13.20545,-15.85448c-0.77212,-5.44454 -3.23498,-7.25125 -10.89518,-7.9898c-8.10272,-0.78128 -10.53506,0.44557 -13.41908,6.77821M1335.7439,1994.1942" id="CompoundPath 1"/><path d="M-120.55931,1998.45382c-2.64519,0.91187 -7.88556,1.74487 -11.64655,1.85067c-8.86669,0.25009 -23.67208,9.64582 -28.16602,17.87766c-3.12806,5.73286 -3.5763,13.97239 -4.51511,83.31302c-1.18889,87.94548 -0.9061,90.41176 11.73504,101.8313c4.28233,3.86872 9.98633,7.87017 12.67577,8.89362c3.08574,1.1735 108.68188,1.70639 286.06184,1.44476c154.64284,-0.22701 290.25952,-0.3963 301.36933,-0.37706c11.10981,0.01924 231.86134,0.18661 490.55937,0.37321l470.35778,0.34051l8.66277,-5.28462c6.09837,-3.71866 10.08444,-8.12411 13.47029,-14.89004l4.80944,-9.60927v-76.95109c0,-58.27121 -0.60791,-78.66518 -2.50283,-84.01135c-3.83409,-10.81548 -17.2659,-22.12921 -28.55463,-24.05299c-5.13841,-0.87532 -83.79204,-1.54479 -174.78671,-1.49093c-171.32391,0.10388 -423.86008,0.24432 -503.54871,0.27702c-25.12838,0.01154 -51.96507,0.04425 -59.6371,0.07503c-7.67202,0.02886 -145.1009,-0.05964 -305.39965,-0.20007c-160.29874,-0.13851 -307.90056,-0.15005 -328.00403,-0.02309c-20.10347,0.12505 -46.50732,0.22316 -58.67521,0.21931c-12.16789,-0.00385 -28.61619,0.23662 -36.55177,0.53481c-7.93558,0.30011 -23.08533,0.01731 -33.6661,-0.62908c-10.58078,-0.64447 -21.40202,-0.42515 -24.04722,0.48864M59.16381,2056.14021c6.966,6.55239 6.96985,18.74529 0.00385,25.30152c-4.3208,4.06687 -7.27573,4.78636 -23.10841,5.62512c-9.9844,0.52904 -18.35861,1.82759 -18.61062,2.88567c-0.26163,1.1004 6.75053,2.47398 16.36942,3.20694c27.90824,2.12577 36.0766,10.33453 36.0766,36.25935c0,17.53908 -4.76904,27.06755 -16.35211,32.67536c-6.69859,3.24349 -11.87932,3.84755 -32.97547,3.84755c-24.35694,0 -25.15339,-0.13274 -29.64926,-4.91717c-6.20995,-6.6101 -6.34847,-18.33937 -0.29049,-24.41081c3.83601,-3.84371 6.79093,-4.44777 25.92675,-5.30001c17.48906,-0.77913 21.59825,-1.51017 21.59825,-3.84755c0,-2.28352 -3.68403,-3.09151 -17.68336,-3.86872c-19.90532,-1.1081 -26.02871,-4.08803 -31.85006,-15.50565c-4.7979,-9.40535 -4.51318,-28.99132 0.57136,-39.49515c6.8852,-14.22441 17.10623,-18.07774 46.40728,-17.49098c16.77149,0.33474 19.09541,0.83107 23.56627,5.03453M122.84084,2054.07407c3.19539,1.95071 10.12099,9.26491 15.39022,16.25784c5.2673,6.99101 10.10175,12.7508 10.7443,12.79889c0.64254,0.04809 6.52738,-6.44081 13.07784,-14.42256c6.55046,-7.98175 14.2398,-15.39791 17.08891,-16.47908c7.41424,-2.82026 16.92155,-0.45209 21.48667,5.35002c3.71674,4.72672 3.93028,7.57391 3.93028,52.49796v47.49806l-4.91717,4.62091c-7.21032,6.7717 -18.94344,6.42926 -25.10529,-0.73296c-4.30157,-5.00182 -4.60552,-6.86788 -4.60552,-28.33916v-22.98337l-6.95638,7.70088c-5.41543,5.99449 -8.35112,7.70088 -13.24328,7.70088c-4.89217,0 -7.82785,-1.70639 -13.24328,-7.70088l-6.95638,-7.70088v21.04228c0,24.52624 -1.46784,29.58192 -9.84782,33.91619c-5.12494,2.64904 -7.41039,2.81641 -13.51838,0.98497c-4.04378,-1.21006 -8.23184,-3.84563 -9.30723,-5.85598c-1.1735,-2.19311 -1.95456,-22.83331 -1.95456,-51.70152v-48.05019l5.91946,-4.98066c6.97177,-5.86752 13.98394,-6.31961 22.01763,-1.42167M291.86584,2054.84359c5.93485,5.35195 40.21272,86.22178 40.34161,95.17503c0.10773,7.35652 -6.41772,15.18822 -14.05319,16.86383c-9.03213,1.98534 -15.32096,-1.93917 -19.93226,-12.43722l-4.2073,-9.57464l-14.42833,-0.03848l-14.42833,-0.03848l-3.58207,8.71279c-6.37155,15.49218 -20.90184,18.37015 -31.16519,6.17148c-3.5763,-4.24962 -4.74211,-7.40654 -4.03416,-10.91936c1.76218,-8.7378 39.12194,-89.18247 43.55624,-93.79184c5.65013,-5.86944 15.5018,-5.92331 21.93299,-0.12312M425.71842,2056.34028c21.08075,11.67925 25.03989,37.43286 8.55889,55.67412l-6.69859,7.41424l7.76437,12.01207c10.8174,16.73494 10.24411,27.28301 -1.81605,33.5199c-12.80466,6.62164 -20.17081,1.08501 -34.52796,-25.95176l-9.70353,-18.27588l-0.02693,18.75683c-0.02309,16.16935 -0.5579,19.28779 -3.87449,22.60438c-5.78672,5.78672 -19.8707,5.31347 -26.05756,-0.87532l-4.72287,-4.72095v-46.16681c0,-29.83394 0.75797,-47.8328 2.14309,-50.87237c3.53975,-7.76821 8.51849,-8.94941 35.37057,-8.39152c22.45433,0.46555 25.88635,1.00421 33.59108,5.27307M541.15467,2053.36805c7.81246,4.03993 10.79624,13.84735 6.98716,22.96605c-3.06842,7.34306 -8.93979,10.73275 -18.58946,10.73275h-5.64629v35.25514v35.25322l-4.91717,4.62091c-7.21032,6.7717 -18.94344,6.42926 -25.10529,-0.73296c-4.48817,-5.21921 -4.60552,-6.23496 -4.60552,-39.87606v-34.52026h-5.64629c-9.64967,0 -15.52104,-3.3897 -18.58946,-10.73275c-3.70135,-8.86092 -0.82145,-18.84725 6.59663,-22.87564c7.43925,-4.04186 61.74171,-4.11111 69.51569,-0.09042M753.0145,2053.49309c10.66157,5.51355 12.53533,19.232 3.81677,27.95056c-5.04992,5.04799 -6.88712,5.6232 -17.99117,5.6232c-20.79411,0 -31.53841,11.18484 -27.19644,28.30646c2.60864,10.27874 9.54771,14.41679 26.51158,15.80383c16.30017,1.33318 21.60017,4.62861 23.47008,14.5957c1.52171,8.11065 -3.40124,17.78532 -9.87667,19.41091c-8.75126,2.19503 -37.94458,-0.25009 -44.57777,-3.73598c-38.01384,-19.98035 -41.97297,-75.69294 -7.0872,-99.7921c14.31098,-9.88629 41.49011,-14.0782 52.93081,-8.16259M814.54459,2056.13829c5.28654,5.28654 5.6232,6.55239 5.6232,21.16155v15.53835h9.42074h9.42266l0.67717,-16.51948c0.63677,-15.49603 1.0273,-16.81766 6.31768,-21.36739c4.62668,-3.9803 7.00447,-4.66708 13.26637,-3.82639c4.19768,0.56367 9.45152,2.84334 11.67733,5.06531c3.84755,3.84563 4.07456,6.26959 4.62861,49.52188c0.63485,49.62576 -0.15005,54.56602 -9.41497,59.35815c-6.56585,3.39547 -9.66121,3.48973 -16.23091,0.49633c-7.48734,-3.41086 -10.52691,-11.05402 -10.52691,-26.46156v-13.56263h-9.61889h-9.61889v15.13051c0,17.64296 -3.62632,24.33194 -14.27828,26.32882c-7.28919,1.36781 -17.02158,-2.7183 -19.53596,-8.20299c-2.58556,-5.63859 -3.3493,-85.3984 -0.9061,-94.4767c3.77637,-14.02434 18.97999,-18.30089 29.09713,-8.18375M978.40809,2054.3511c5.69438,2.13155 13.9647,7.4027 18.59716,11.85239c23.66054,22.73712 24.76286,59.95067 2.46051,83.07063c-23.48355,24.3454 -60.10073,24.53586 -84.19796,0.43862c-16.45791,-16.45599 -21.47128,-43.00412 -12.19482,-64.56581c5.07492,-11.80045 21.35008,-27.30994 32.9697,-31.42298c11.91588,-4.21692 30.13982,-3.94567 42.36542,0.62715M1067.74639,2055.15524l5.39812,4.64015l0.5829,45.69741c0.40976,32.23096 -0.09619,47.33069 -1.71409,51.23981c-2.30084,5.55395 -10.41148,11.1329 -16.18281,11.1329c-6.14454,0 -14.04935,-5.76556 -16.14434,-11.77159c-3.38008,-9.69584 -2.83757,-86.69695 0.66947,-95.09039c4.57474,-10.94822 18.0989,-13.83581 27.39074,-5.84828M1177.28819,2056.98283c3.04919,3.54552 4.5305,7.63355 4.48817,12.39682c-0.10773,12.44876 -7.20262,17.68721 -23.95487,17.68721c-13.49337,0 -21.63672,4.06302 -25.19186,12.56996c-3.48204,8.33765 -3.43587,11.33874 0.30011,19.21469c3.83024,8.07217 12.90662,12.46223 25.75938,12.46223c15.95196,0 22.98337,5.44621 23.08725,17.88151c0.04425,5.24229 -1.27162,8.63391 -4.66131,12.02361c-4.25924,4.26117 -6.29268,4.72287 -20.81719,4.72287c-19.29741,0 -30.74773,-3.49743 -41.44971,-12.65845c-18.07389,-15.47102 -23.99143,-45.29918 -13.52223,-68.16713c10.64041,-23.24115 31.20752,-35.03968 59.12922,-33.91812c10.6962,0.43093 12.87007,1.17735 16.83305,5.7848M1286.855,2056.87509c6.63511,7.72012 6.24843,17.33323 -0.98497,24.56856c-5.50585,5.50585 -6.04643,5.6232 -25.97099,5.6232c-16.80419,0 -20.34779,0.50211 -20.34779,2.88567c0,2.36047 3.29735,2.88567 18.13545,2.88567c17.30245,0 18.32013,0.23278 22.12344,5.06915c5.53663,7.03718 5.21728,16.96194 -0.73488,22.91219c-4.31696,4.31888 -6.21188,4.72287 -22.12344,4.72287c-14.18401,0 -17.40057,0.53289 -17.40057,2.88567c0,2.37202 3.41086,2.88567 19.14736,2.88567c10.53076,0 21.25582,0.96189 23.8356,2.13539c9.64774,4.39583 12.02553,19.98227 4.23616,27.76973c-4.66324,4.66324 -5.15188,4.72287 -39.297,4.72287h-34.57605l-3.98607,-5.06915c-3.79369,-4.82099 -3.98414,-7.37961 -3.92643,-52.42293c0.06541,-50.47222 0.33281,-52.01124 9.73239,-55.90304c2.59325,-1.07347 18.47019,-1.7314 36.06698,-1.49477l31.4326,0.42515l4.63823,5.39812M389.24167,2094.96011c0,9.82473 0.07118,9.9517 3.76868,6.60625c2.07383,-1.87568 6.61779,-3.99376 10.09983,-4.70556c5.09224,-1.04076 6.33115,-2.22004 6.33115,-6.02527c0,-4.34966 -0.81183,-4.77674 -10.09983,-5.31155l-10.09983,-0.5829v10.01903M941.814,2092.4188c-6.88712,6.43504 -9.21489,15.38829 -6.29845,24.22805c5.70977,17.29861 27.51002,20.8903 39.59903,6.52161c4.46316,-5.30385 5.01913,-7.37191 4.21884,-15.69995c-1.28124,-13.3414 -9.03598,-20.40166 -22.40431,-20.40166c-7.60854,0 -10.4692,1.01191 -15.11512,5.35195M279.72103,2107.58971c-0.0731,1.23699 -0.65986,3.6167 -1.3024,5.29039c-0.76566,1.99688 -0.10581,3.04342 1.92378,3.04342c3.42048,0 3.60516,-1.06 1.16773,-6.73322c-0.90995,-2.11616 -1.71409,-2.83565 -1.78911,-1.60058" id="element-35"/><path d="M584.66399,2314.35138c2.19613,-2.19614 4.68904,-2.47972 8.60317,-0.97771c2.26868,0.87054 2.60832,5.71622 2.60832,37.24524c0,35.10187 0.11212,36.33348 3.54646,39.11492c2.71055,2.19613 3.28596,3.90753 2.4418,7.27098c-0.91341,3.64044 -2.02466,4.39556 -6.43177,4.37578c-6.73679,-0.03297 -8.80927,-1.37505 -10.99386,-7.12259c-2.55721,-6.7236 -2.35606,-77.32467 0.22588,-79.90661zM1061.51182,2313.37368c2.26868,0.87054 2.60832,5.71622 2.60832,37.24524c0,35.10187 0.11212,36.33348 3.54646,39.11492c2.71055,2.19613 3.28596,3.90753 2.4418,7.27098c-0.91671,3.65198 -2.02632,4.40051 -6.52905,4.40051c-2.98258,0 -6.86374,-1.05191 -8.6246,-2.33793c-2.98919,-2.18294 -3.23485,-4.97263 -3.72123,-42.15521c-0.37921,-29.00314 0.01154,-40.45865 1.43771,-42.17829zM797.84722,2317.15097c15.99946,-4.02295 32.51498,7.01213 32.82659,21.9366c0.14179,6.75822 -0.07254,7.08467 -4.65112,7.08467c-3.98173,0 -5.11772,-0.94803 -6.67414,-5.56782c-3.44753,-10.24368 -13.7011,-14.66233 -22.84671,-9.84798c-4.71872,2.48302 -6.01793,4.60001 -6.04926,9.85622c-0.03133,5.55629 1.79714,6.95937 14.73322,11.31042c20.70498,6.96102 26.56464,12.11501 27.61324,24.28442c1.4443,16.76612 -14.0358,28.60084 -33.75978,25.80786c-13.12734,-1.85814 -25.75676,-14.33422 -24.76421,-24.46413c0.41549,-4.24718 1.25305,-5.0732 5.56288,-5.49363c4.59836,-0.45011 5.24797,0.09233 6.95772,5.797c2.28352,7.62382 8.89005,12.00949 18.09007,12.00949c8.50095,0 15.2196,-5.09628 15.2196,-11.54289c0,-6.47299 -3.07327,-9.01042 -16.05057,-13.24935c-21.31173,-6.96432 -27.90837,-13.84785 -26.36679,-27.51927c1.15083,-10.21235 8.26353,-17.40914 20.15925,-20.40162zM187.80685,2319.20695c0.70566,-1.84 4.6,-2.15821 19.4305,-1.59104c20.63079,0.78975 26.53826,2.97764 31.71698,11.74569c3.64868,6.17622 3.68166,17.96642 0.06595,23.48643c-2.50445,3.8218 -2.46323,4.29499 0.6562,7.6436c7.31056,7.84804 6.43342,23.57711 -1.78724,32.05992c-6.62137,6.83076 -16.97057,9.2874 -36.06473,8.56195l-14.01436,-0.53255l-0.44351,-39.537c-0.24236,-21.74535 -0.04451,-40.57241 0.44022,-41.837zM449.33633,2317.62581c5.09463,0.50946 5.33535,0.95132 16.77272,30.73762c7.77385,20.24498 12.04081,29.43841 12.92949,27.85066c0.72875,-1.30251 5.8003,-14.08526 11.2692,-28.40464c5.4689,-14.31773 10.77622,-27.03618 11.79185,-28.26285c2.44674,-2.94797 9.55285,-2.85399 10.70203,0.14179c0.8623,2.24724 -26.2184,75.30001 -29.52744,79.656c-2.29835,3.02546 -9.04998,2.51105 -10.82898,-0.82437c-4.74345,-8.89006 -29.91325,-77.14661 -29.16637,-79.09378zM384.28661,2325.01386c0.60344,-0.6051 3.12108,-1.09972 5.5942,-1.09972c4.53571,0 6.49607,2.49621 6.49607,8.26848c0,2.10546 1.40803,3.21506 4.53406,3.57614c3.77729,0.43362 4.6198,1.41463 5.05012,5.87944c0.48143,4.99241 0.17147,5.35843 -4.53406,5.35843h-5.05012v43.10324l4.53406,-0.52925c4.16144,-0.48803 4.57528,-0.02308 5.04517,5.65191l0.51276,6.18281h-8.22396c-6.9198,0 -8.76475,-0.68917 -11.64017,-4.34445c-3.08481,-3.92073 -3.41786,-6.57357 -3.41786,-27.20436c0,-21.76018 -0.15828,-22.8599 -3.2975,-22.8599c-2.58689,0 -3.2975,-1.09972 -3.2975,-5.10123c0,-3.71299 0.89692,-5.33371 3.2975,-5.96188c2.27692,-0.5952 3.2975,-2.2489 3.2975,-5.34195c0,-2.46323 0.49463,-4.97428 1.09972,-5.57772zM226.55575,2333.80663c-2.66933,-2.66933 -5.49528,-3.2975 -14.83874,-3.2975h-11.54124v21.87725l11.8611,-0.84911c9.66991,-0.69248 12.41013,-1.52839 14.83874,-4.52582c3.87621,-4.78632 3.77069,-9.11428 -0.31986,-13.20483zM272.72071,2335.5642c6.62302,-2.77649 20.21201,-1.20359 26.15575,3.02875c8.64275,6.15478 11.82483,14.43974 11.60225,30.21167c-0.03077,2.16686 -0.09507,4.12625 -0.2054,5.91223c-0.30611,0.01622 -0.71647,0.04013 -1.18701,0.06846c-2.28232,0.13743 -6.15911,0.3892 -7.63084,0.45052c-0.04328,0.0018 -0.5508,-0.10416 -1.35767,-0.17692c-0.25748,-0.02322 -0.63251,-0.03799 -1.01183,-0.02083c-0.33138,-1.06738 -6.24027,-1.66149 -16.58321,-1.66149c-16.42978,0 -16.58806,0.03792 -15.53451,3.70968c1.77405,6.18446 10.10188,12.78275 16.08354,12.74153c4.16514,-0.02859 8.69246,-2.50633 11.87337,-5.86835c2.53154,0.09848 9.37651,0.31644 13.49923,-0.01482c0.15897,-0.01286 0.31404,-0.03789 0.46437,-0.0741c-1.38003,4.73506 -3.85197,7.90413 -8.15579,11.5251c-16.19566,13.62855 -39.41334,5.97671 -45.51206,-15.00032c-5.52001,-18.98864 2.03621,-38.3466 17.49982,-44.83113zM332.68077,2336.96896c11.21149,-6.83571 27.36098,-2.33133 32.543,9.07801c1.67843,3.69649 3.06833,8.38883 3.08811,10.42998c0.02968,3.10954 -0.8491,3.70968 -5.43757,3.70968c-4.58517,0 -5.85471,-0.86559 -7.83156,-5.33865c-3.0304,-6.86374 -8.6279,-9.72927 -14.79752,-7.5793c-2.53412,0.88372 -4.98252,2.58358 -5.43922,3.77563c-1.35692,3.53657 3.47391,8.79607 9.22475,10.04088c9.63529,2.08567 19.44204,7.64525 21.91187,12.42332c5.86955,11.34833 1.22337,22.25975 -11.55608,27.14005c-7.95356,3.03699 -16.02254,2.38903 -24.44435,-1.96696c-4.97428,-2.57205 -10.95759,-13.45544 -11.02024,-20.04549c-0.03297,-3.38818 0.63477,-3.75255 6.03772,-3.2975c5.09629,0.42867 6.27349,1.26459 7.3188,5.2018c1.63885,6.17621 5.90252,9.21321 12.98719,9.24618c6.41693,0.02967 8.98403,-1.1904 10.24697,-4.86876c1.50201,-4.37578 -1.88122,-8.08712 -9.03844,-9.91393c-11.6616,-2.97764 -15.93021,-5.1342 -20.20212,-10.2107c-7.54797,-8.96919 -4.77477,-21.00506 6.40869,-27.82428zM534.0474,2336.13465c10.48769,-4.66101 25.33468,-1.57785 30.46888,6.3279c2.82266,4.3461 5.2051,53.47551 2.75836,56.88183c-1.78725,2.48797 -8.00962,2.7122 -10.34755,0.37427c-1.14918,-1.14918 -3.59922,-0.88703 -7.69636,0.82437c-7.62382,3.18539 -11.03013,3.15571 -19.33488,-0.16652c-7.81177,-3.12602 -11.51156,-9.08625 -11.51156,-18.54842c0,-11.73579 10.18102,-19.75201 28.5926,-22.51366c7.26604,-1.08818 7.82167,-1.50531 7.35837,-5.49858c-1.24151,-10.67235 -19.47832,-9.62869 -21.65137,1.23821c-0.92494,4.62144 -1.62731,5.13255 -7.05664,5.13255h-6.02783l0.90516,-6.75657c1.01068,-7.53313 6.04596,-13.9649 13.54282,-17.29537zM694.80206,2335.65818c6.65352,-2.65281 13.46339,-2.60566 19.49856,-0.37099c-1.41129,1.23235 -2.92488,2.53615 -4.41923,3.53608c-1.42784,0.95542 -2.43774,1.46447 -3.52808,1.61888c-0.50013,0.07083 -0.58698,0.0676 -0.95966,-0.04912c-0.39622,-0.12409 -2.09019,-1.30676 -2.09019,-1.30676c-1.58112,-0.4952 -3.26431,0.38512 -3.75951,1.96624c-0.4952,1.58112 0.38512,3.26431 1.96624,3.75951c0,0 -0.32378,-0.14541 0,0c0,0 1.0213,0.97199 2.09019,1.30676c1.09243,0.34214 2.53295,0.4144 3.59425,0.2641c2.0325,-0.28784 4.28166,-1.40747 6.02349,-2.57299c2.69024,-1.80013 5.11657,-4.10392 6.84063,-5.56731c5.8611,3.94116 10.44908,10.24601 12.58211,18.26404c1.23418,4.63801 1.4383,11.32035 0.80733,17.43165c-1.21577,-0.00966 -2.43892,-0.01416 -3.66806,-0.00232c-2.40482,-0.26041 -4.81796,-0.47222 -7.0931,-0.38732l0.07125,-0.17202h-3.02645c-0.58802,-0.08307 -1.31045,-0.1223 -2.04562,0h-11.37915c-15.55759,0 -16.45286,0.18631 -16.45286,3.42445c0,1.88287 2.1681,5.59255 4.81929,8.24374c6.66022,6.66022 15.51768,6.21177 21.59996,0.00715c4.08343,0.36539 7.50041,0.84365 10.68114,1.81088c0.8999,0.27365 1.74887,0.57265 2.57752,0.9156c-12.12473,20.35351 -41.36218,18.86451 -50.43435,-3.26617c-7.63701,-18.63416 0.07254,-42.62016 15.70433,-48.85408zM914.82757,2335.89724c1.03212,-2.6924 10.30963,-2.73197 11.20325,-0.04946c0.54079,1.62402 1.59928,1.62402 5.16058,0c12.27164,-5.59091 27.82099,-0.13355 35.1233,12.32769c3.8317,6.53729 4.5522,9.63199 4.51098,19.3761c-0.06595,15.52792 -5.45241,26.17389 -16.0077,31.63125c-5.30897,2.74516 -16.43638,3.619 -22.9308,1.79878l-4.45492,-1.2481l-0.98266,20.63244h-11.54124l-0.44186,-41.18904c-0.24236,-22.65381 -0.08078,-42.13048 0.36108,-43.27966zM994.27419,2335.51638c1.1805,1.1805 3.1013,1.1805 6.20754,0c13.91543,-5.29084 28.45245,0.8557 35.7696,15.12397c4.43678,8.65263 4.2818,25.92657 -0.31821,35.42831c-5.95199,12.29472 -20.88635,18.47258 -35.70201,14.76619l-5.35843,-1.34043v21.69589h-11.54124v-42.59213c0,-23.42707 0.49463,-43.0884 1.09972,-43.69184zM613.46269,2336.55507c2.16151,-2.1615 10.09528,-1.08322 11.08948,1.50861c0.55068,1.43441 1.00079,12.1925 1.00079,23.90686c0,19.10075 0.33964,21.63817 3.2975,24.59603c3.59427,3.59428 9.93536,4.27356 14.92942,1.59929c6.44661,-3.44918 8.15306,-10.15299 8.15306,-32.0187v-20.6918h11.61048l-0.89362,65.12558l-3.89929,0.55233c-2.14503,0.30337 -4.60331,-0.15168 -5.46066,-1.00903c-0.981,-0.981 -4.08065,-0.69247 -8.35256,0.77986c-13.37135,4.60661 -27.47145,-1.80208 -30.86787,-14.03085c-1.85814,-6.68897 -2.36266,-48.56224 -0.60674,-50.31816zM853.84531,2335.79007l5.0056,0.48968l0.82437,24.45589c0.7337,21.75854 1.17721,24.71475 4.0246,26.79217c4.79126,3.49699 11.70941,2.82595 16.90462,-1.63886c4.6066,-3.957 4.62804,-4.07901 5.16388,-27.20436l0.53584,-23.22922h11.36153l-0.89362,65.12558l-3.89929,0.55233c-2.14502,0.30337 -4.63463,-0.18301 -5.53155,-1.07993c-1.07663,-1.07663 -3.63549,-0.7947 -7.51994,0.82767c-12.5173,5.22983 -28.21834,-1.72459 -31.6296,-14.00777c-1.90431,-6.85714 -2.34287,-48.58368 -0.52925,-50.3973zM1074.94416,2336.93265c0.50122,-0.81283 3.34036,-1.47728 6.30811,-1.47728h5.398l8.01787,21.38757c4.40875,11.76217 8.39213,21.01 8.85213,20.55165c0.45836,-0.46 4.2917,-9.89909 8.51744,-20.97538l7.68317,-20.13947l5.99815,-0.51111c4.54395,-0.38745 5.9998,0.10882 5.9998,2.04775c0,2.65449 -18.89796,52.81437 -25.64794,68.07849c-5.15564,11.6583 -11.05486,16.94419 -18.90785,16.94419c-7.31385,0 -10.63113,-3.26947 -9.18023,-9.04833c0.87054,-3.46897 1.89606,-4.07736 6.28338,-3.73112c4.58352,0.36108 5.69973,-0.41384 8.88511,-6.18116l3.64373,-6.595l-11.38131,-29.43676c-6.26029,-16.19071 -10.97242,-30.10286 -10.46955,-30.91404zM278.79801,2347.145c-6.21743,1.7048 -8.78948,4.04603 -10.8092,9.83973l-1.69162,4.85062h15.57738c13.82806,0 15.57738,-0.32975 15.57738,-2.92983c0,-1.61247 -1.10136,-4.50438 -2.44674,-6.42517zM694.0321,2352.17698c-7.28747,8.66088 -6.08883,9.65837 11.59565,9.65837c15.59386,0 15.76204,-0.04286 14.64913,-3.70968c-0.61828,-2.04116 -2.58194,-5.30403 -4.36259,-7.25285zM1021.9946,2352.14566c-5.89592,-7.00718 -15.88899,-7.88761 -21.32821,-1.87792c-6.9165,7.64359 -6.83571,28.81188 0.1352,35.78279c7.48202,7.48202 19.92678,3.40466 24.50041,-8.02941c3.5547,-8.88016 2.22086,-19.3052 -3.30739,-25.87546zM950.60378,2348.77727c-1.83011,-0.97936 -6.28998,-1.78065 -9.91228,-1.78065c-9.85293,0 -13.41752,5.337 -13.41752,20.09c0,16.77931 3.84654,22.77746 14.60627,22.77746c12.96246,0 20.79896,-18.37036 14.38698,-33.72021c-1.28437,-3.07162 -3.83169,-6.3856 -5.66345,-7.36661zM56.10151,2358.92531c44.50962,0.39735 49.07666,0.69742 50.732,3.32223c1.32724,2.1038 1.32724,3.66682 0,5.77062c-1.66689,2.64294 -5.96023,2.88531 -51.10297,2.88531h-49.28275l-0.54244,-3.83004c-0.29842,-2.10545 -0.1319,-4.89843 0.36932,-6.20754zM1253.27119,2358.92531l49.09314,0.43692v11.54124h-98.92492l-0.54244,-3.83004c-0.29842,-2.10545 -0.1319,-4.89843 0.36932,-6.20754zM224.67123,2365.29771c-2.86223,-0.99749 -9.54296,-1.81362 -14.84863,-1.81362h-9.64683v24.73124l11.12905,-0.02473c13.6368,-0.02968 19.1799,-2.49785 19.91359,-8.86862c0.92165,-7.99808 -0.9876,-12.08533 -6.54718,-14.02426zM554.65676,2375.97666c0,-3.70803 -0.68258,-4.24058 -5.35843,-4.18452c-9.34016,0.11212 -19.3728,6.36582 -19.3728,12.07544c0,2.52588 5.86625,5.9965 10.13651,5.9965c6.29327,0 14.59472,-7.89915 14.59472,-13.88741z" id="element-36"/></g></g></g></g></svg>